<svg id="Capa_1" enable-background="new 0 0 512 512" height="512" viewBox="0 0 512 512" width="512" xmlns="http://www.w3.org/2000/svg"><g><path d="m381.651 184.029c0-79.03-53.148-145.643-125.651-166.057l-90 166.057 90 166.058c72.503-20.414 125.651-87.028 125.651-166.058z" fill="#ffa845"/><path d="m209.151 11.529c-95.269 0-172.5 77.231-172.5 172.5s77.231 172.5 172.5 172.5c16.239 0 31.952-2.248 46.849-6.442v-332.115c-14.898-4.195-30.611-6.443-46.849-6.443z" fill="#ffbe52"/><path d="m466.075 308.659c-5.555-35.268-35.488-62.045-71.74-63.153-30.316-46.505-82.509-75.036-138.335-75.036l-60 165 60 165h151c57.897 0 105-47.103 105-105 0-34.779-17.413-67.36-45.925-86.811z" fill="#d1d1d1"/><path d="m150.906 208.266c-25.923 21.441-44.719 50.396-53.763 82.496-54.241 4.032-97.143 49.455-97.143 104.709 0 57.897 47.103 105 105 105h151v-330c-38.303 0-75.625 13.422-105.094 37.795z" fill="#e8e8e8"/></g></svg>